<svg xmlns="http://www.w3.org/2000/svg" viewBox="0 0 1440 2520" role="img" aria-labelledby="title desc">
  <title id="title">Patient tooth history workflow with file references</title>
  <desc id="desc">Detailed workflow diagram for the patient tooth history view, with improved spacing and file references for every major step.</desc>
  <defs>
    <linearGradient id="bg" x1="0" y1="0" x2="1" y2="1">
      <stop offset="0%" stop-color="#071019"/>
      <stop offset="58%" stop-color="#0d1722"/>
      <stop offset="100%" stop-color="#111f2d"/>
    </linearGradient>
    <radialGradient id="glow-a" cx="0" cy="0" r="1" gradientUnits="userSpaceOnUse" gradientTransform="translate(1180 170) rotate(90) scale(260)">
      <stop offset="0%" stop-color="#2ac1a3" stop-opacity="0.22"/>
      <stop offset="100%" stop-color="#2ac1a3" stop-opacity="0"/>
    </radialGradient>
    <radialGradient id="glow-b" cx="0" cy="0" r="1" gradientUnits="userSpaceOnUse" gradientTransform="translate(190 2140) rotate(90) scale(340)">
      <stop offset="0%" stop-color="#e1903e" stop-opacity="0.14"/>
      <stop offset="100%" stop-color="#e1903e" stop-opacity="0"/>
    </radialGradient>
    <pattern id="grid" width="48" height="48" patternUnits="userSpaceOnUse">
      <path d="M 48 0 L 0 0 0 48" fill="none" stroke="#1d3042" stroke-width="1"/>
    </pattern>
    <filter id="shadow" x="-20%" y="-20%" width="140%" height="140%">
      <feDropShadow dx="0" dy="14" stdDeviation="22" flood-color="#000000" flood-opacity="0.34"/>
    </filter>
    <marker id="arrow-teal" viewBox="0 0 12 12" refX="10" refY="6" markerWidth="12" markerHeight="12" orient="auto-start-reverse">
      <path d="M 0 0 L 12 6 L 0 12 z" fill="#5fd4bd"/>
    </marker>
    <style>
      text { dominant-baseline: hanging; }
      .display { font-family: Fraunces, Georgia, serif; }
      .sans { font-family: Manrope, "Segoe UI", sans-serif; }
      .mono { font-family: "Cascadia Mono", Consolas, monospace; }
      .hero-title { font-size: 52px; font-weight: 800; fill: #f4fbff; }
      .hero-subtitle { font-size: 18px; font-weight: 500; fill: #aec2d6; }
      .section-kicker { font-size: 14px; font-weight: 800; fill: #5fd4bd; letter-spacing: 2px; text-transform: uppercase; }
      .section-title { font-size: 28px; font-weight: 800; fill: #eef7ff; }
      .section-note { font-size: 16px; font-weight: 500; fill: #9cb1c6; }
      .card-strong { font-size: 16px; font-weight: 700; fill: #d9e8f5; }
      .card-line { font-size: 15px; font-weight: 500; fill: #a8bdd1; }
      .path { font-size: 10px; font-weight: 600; fill: #8fd7ff; }
      .pill { font-size: 14px; font-weight: 700; fill: #e9f7ff; }
      .panel { fill: rgba(15, 23, 34, 0.9); stroke: #253a4f; stroke-width: 2; filter: url(#shadow); }
      .subpanel { fill: rgba(24, 38, 53, 0.95); stroke: #35536d; stroke-width: 1.4; }
      .stage { fill: rgba(17, 31, 45, 0.95); stroke: #30516a; stroke-width: 1.6; }
      .stage-teal { fill: rgba(15, 61, 51, 0.4); stroke: #2ac1a3; stroke-width: 1.7; }
      .stage-blue { fill: rgba(24, 49, 73, 0.92); stroke: #5aa8df; stroke-width: 1.7; }
      .stage-amber { fill: rgba(74, 51, 20, 0.92); stroke: #e1903e; stroke-width: 1.7; }
      .chip-rose { fill: rgba(74, 31, 36, 0.9); stroke: #f18a8a; stroke-width: 1.2; }
      .connector { fill: none; stroke: #5fd4bd; stroke-width: 3; stroke-linecap: round; marker-end: url(#arrow-teal); }
    </style>
  </defs>

  <rect width="1440" height="2520" fill="url(#bg)"/>
  <rect width="1440" height="2520" fill="url(#grid)" opacity="0.18"/>
  <circle cx="1180" cy="170" r="260" fill="url(#glow-a)"/>
  <circle cx="190" cy="2140" r="340" fill="url(#glow-b)"/>

  <g transform="translate(52 28) scale(0.4)">
    <path d="M110 0 26 18v68c0 53 25 101 68 131l16 11 16-11c43-30 68-78 68-131V18L110 0Z" fill="#2f8c7d"/>
    <path d="M110 0v228l16-11c43-30 68-78 68-131V18L110 0Z" fill="#43b39f"/>
    <path d="M103 49c-18 0-31 14-31 32 0 9 2 16 7 24 4 7 6 15 6 24v34c0 7 7 12 13 8 3-2 5-5 5-8v-23c0-13 5-23 12-23s12 10 12 23v23c0 3 2 6 5 8 6 4 13-1 13-8v-34c0-9 2-17 6-24 5-8 7-15 7-24 0-18-13-32-31-32-8 0-14 2-19 5-5-3-11-5-19-5Z" fill="#ffffff"/>
    <path d="M84 47c12 8 30 8 43 0-2 6-9 11-21 12-9 1-18-3-22-12Z" fill="#2f8c7d"/>
  </g>

  <text x="168" y="46" class="display hero-title">Patient tooth history workflow</text>
  <text x="172" y="110" class="sans hero-subtitle">Improved spacing: panels no longer overlap, long text is wrapped manually, and each box keeps a file reference so you can jump straight into the code.</text>

  <rect x="60" y="150" width="300" height="40" rx="20" class="chip-rose"/>
  <text x="84" y="160" class="sans pill">After profile load, tooth clicks are local UI updates</text>

  <rect x="60" y="230" width="620" height="430" rx="28" class="panel"/>
  <text x="92" y="260" class="sans section-kicker">Phase 1</text>
  <text x="92" y="286" class="sans section-title">UI trigger</text>
  <text x="92" y="324" class="sans section-note">The request starts in the patients workspace.</text>
  <text x="92" y="346" class="sans section-note">The tooth chart is not on screen yet.</text>

  <rect x="92" y="382" width="556" height="72" rx="18" class="subpanel"/>
  <text x="114" y="398" class="sans card-strong">1. User clicks View or Edit in the patients table</text>
  <text x="114" y="422" class="sans card-line">This picks a patient row and starts the profile workflow.</text>
  <text x="114" y="442" class="mono path">files: src/WebApp/wwwroot/index.html</text>

  <rect x="92" y="470" width="556" height="82" rx="18" class="stage-blue"/>
  <text x="114" y="486" class="sans card-strong">2. openPatientProfile(patient.id)</text>
  <text x="114" y="510" class="sans card-line">Calls `refreshPatientProfile({ patientId, silentToast: true })`.</text>
  <text x="114" y="532" class="mono path">files: src/WebApp/wwwroot/js/app-patients.js</text>

  <rect x="92" y="568" width="556" height="92" rx="18" class="stage-teal"/>
  <text x="114" y="584" class="sans card-strong">3. refreshPatientProfile()</text>
  <text x="114" y="608" class="sans card-line">Reads `state.companySlug`, the provided `patientId`, or the current profile id.</text>
  <text x="114" y="630" class="sans card-line">Then delegates the actual HTTP call to `apiRequest(...)`.</text>
  <text x="114" y="650" class="mono path">files: src/WebApp/wwwroot/js/app-patients.js</text>

  <rect x="760" y="230" width="620" height="430" rx="28" class="panel"/>
  <text x="792" y="260" class="sans section-kicker">Phase 2</text>
  <text x="792" y="286" class="sans section-title">Frontend request build</text>
  <text x="792" y="324" class="sans section-note">The browser builds one authenticated GET request.</text>
  <text x="792" y="346" class="sans section-note">That single request asks for the full profile payload.</text>

  <rect x="792" y="382" width="556" height="86" rx="18" class="stage"/>
  <text x="814" y="398" class="sans card-strong">1. apiRequest(url, options)</text>
  <text x="814" y="422" class="sans card-line">Adds `Content-Type: application/json`.</text>
  <text x="814" y="444" class="sans card-line">If `auth: true`, adds `Authorization: Bearer ${state.jwt}`.</text>
  <text x="814" y="464" class="mono path">files: src/WebApp/wwwroot/js/app.js</text>

  <rect x="792" y="484" width="556" height="82" rx="18" class="stage-amber"/>
  <text x="814" y="500" class="sans card-strong">2. GET /api/v1/{companySlug}/patients/{patientId}/profile</text>
  <text x="814" y="524" class="sans card-line">The URL combines the active tenant slug and the selected patient id.</text>
  <text x="814" y="546" class="mono path">files: src/WebApp/wwwroot/js/app-patients.js</text>

  <rect x="792" y="582" width="556" height="78" rx="18" class="subpanel"/>
  <text x="814" y="598" class="sans card-strong">3. Response parse behavior</text>
  <text x="814" y="622" class="sans card-line">Reads `response.text()`, parses JSON when needed, and throws on non-OK responses.</text>
  <text x="814" y="644" class="mono path">files: src/WebApp/wwwroot/js/app.js</text>

  <path d="M 680 505 C 716 505, 732 505, 760 505" class="connector"/>
  <path d="M 720 660 C 720 704, 720 742, 720 792" class="connector"/>

  <rect x="60" y="720" width="1320" height="300" rx="28" class="panel"/>
  <text x="92" y="750" class="sans section-kicker">Phase 3</text>
  <text x="92" y="776" class="sans section-title">WebApp middleware and controller entry</text>
  <text x="92" y="814" class="sans section-note">The request survives tenant resolution, JWT auth, route checks,</text>
  <text x="92" y="836" class="sans section-note">and controller guards before business logic runs.</text>

  <rect x="92" y="872" width="392" height="118" rx="18" class="stage-teal"/>
  <text x="112" y="888" class="sans card-strong">TenantResolutionMiddleware</text>
  <text x="112" y="912" class="sans card-line">Resolves `{companySlug}` to `CompanyId`.</text>
  <text x="112" y="934" class="sans card-line">Blocks missing or inactive companies.</text>
  <text x="112" y="956" class="sans card-line">Stores tenant context for the request.</text>
  <text x="112" y="976" class="mono path">files: src/WebApp/Middleware/TenantResolutionMiddleware.cs</text>

  <rect x="524" y="872" width="392" height="118" rx="18" class="stage-blue"/>
  <text x="544" y="888" class="sans card-strong">JWT + [Authorize]</text>
  <text x="544" y="912" class="sans card-line">The endpoint requires a valid JWT.</text>
  <text x="544" y="934" class="sans card-line">Allowed roles: Owner, Admin, Manager, Employee.</text>
  <text x="544" y="956" class="sans card-line">Tenant endpoints are role-protected before BLL executes.</text>
  <text x="544" y="976" class="mono path">files: src/WebApp/ApiControllers/Tenant/PatientsController.cs</text>

  <rect x="956" y="872" width="392" height="132" rx="18" class="stage-amber"/>
  <text x="976" y="888" class="sans card-strong">PatientsController.GetProfile</text>
  <text x="976" y="912" class="sans card-line">Checks `TenantMatches(companySlug)`.</text>
  <text x="976" y="934" class="sans card-line">Reads `User.UserId()` from JWT claims.</text>
  <text x="976" y="956" class="sans card-line">Calls `patientService.GetProfileAsync(...)`.</text>
  <text x="976" y="978" class="mono path">files: src/WebApp/ApiControllers/Tenant/PatientsController.cs</text>
  <text x="976" y="994" class="mono path">       src/WebApp/Helpers/ClaimsPrincipalExtensions.cs</text>

  <rect x="60" y="1060" width="620" height="900" rx="28" class="panel"/>
  <text x="92" y="1090" class="sans section-kicker">Phase 4A</text>
  <text x="92" y="1116" class="sans section-title">PatientService flow</text>
  <text x="92" y="1154" class="sans section-note">This is the main backend workflow that builds</text>
  <text x="92" y="1176" class="sans section-note">patient info, tooth state, and tooth history payload.</text>

  <rect x="92" y="1216" width="556" height="96" rx="18" class="subpanel"/>
  <text x="112" y="1232" class="sans card-strong">1. Ensure access</text>
  <text x="112" y="1256" class="sans card-line">`EnsureAccessAsync` delegates to `TenantAccessService.EnsureCompanyRoleAsync(...)`.</text>
  <text x="112" y="1278" class="mono path">files: src/App.BLL/Services/PatientService.cs</text>
  <text x="112" y="1294" class="mono path">       src/App.BLL/Services/TenantAccessService.cs</text>

  <rect x="92" y="1328" width="556" height="82" rx="18" class="subpanel"/>
  <text x="112" y="1344" class="sans card-strong">2. Load patient row</text>
  <text x="112" y="1368" class="sans card-line">Reads the patient with `AsNoTracking().SingleOrDefaultAsync(...)` and throws if missing.</text>
  <text x="112" y="1390" class="mono path">files: src/App.BLL/Services/PatientService.cs</text>

  <rect x="92" y="1426" width="556" height="112" rx="18" class="stage-amber"/>
  <text x="112" y="1442" class="sans card-strong">3. Ensure full tooth chart exists</text>
  <text x="112" y="1466" class="sans card-line">`EnsureFullToothChartAsync(patientId)` inserts missing Healthy rows</text>
  <text x="112" y="1488" class="sans card-line">for all permanent teeth when the chart is incomplete.</text>
  <text x="112" y="1510" class="sans card-line">This is the only optional write in the read workflow.</text>
  <text x="112" y="1530" class="mono path">files: src/App.BLL/Services/PatientService.cs</text>

  <rect x="92" y="1554" width="556" height="82" rx="18" class="subpanel"/>
  <text x="112" y="1570" class="sans card-strong">4. Read ToothRecords</text>
  <text x="112" y="1594" class="sans card-line">Loads current tooth status, notes, and timestamps for this patient.</text>
  <text x="112" y="1616" class="mono path">files: src/App.BLL/Services/PatientService.cs</text>

  <rect x="92" y="1652" width="556" height="94" rx="18" class="subpanel"/>
  <text x="112" y="1668" class="sans card-strong">5. Read Treatments + TreatmentType</text>
  <text x="112" y="1692" class="sans card-line">Loads only treatments that have `ToothNumber`, includes `TreatmentType`,</text>
  <text x="112" y="1714" class="sans card-line">and sorts newest first.</text>
  <text x="112" y="1734" class="mono path">files: src/App.BLL/Services/PatientService.cs</text>

  <rect x="92" y="1762" width="556" height="104" rx="18" class="stage-blue"/>
  <text x="112" y="1778" class="sans card-strong">6. Build lookups and result objects</text>
  <text x="112" y="1802" class="sans card-line">Groups treatment history by tooth number and creates one `PatientToothResult`</text>
  <text x="112" y="1824" class="sans card-line">for every value in `ToothChart.PermanentToothNumbers`.</text>
  <text x="112" y="1844" class="mono path">files: src/App.BLL/Services/PatientService.cs</text>
  <text x="112" y="1860" class="mono path">       src/App.Domain/ToothChart.cs</text>

  <rect x="92" y="1882" width="556" height="78" rx="18" class="stage-teal"/>
  <text x="112" y="1898" class="sans card-strong">7. Return PatientProfileResult</text>
  <text x="112" y="1922" class="sans card-line">The service returns patient info plus `teeth[]`, and each tooth already contains `history[]`.</text>
  <text x="112" y="1944" class="mono path">files: src/App.BLL/Services/PatientService.cs</text>

  <rect x="760" y="1060" width="620" height="900" rx="28" class="panel"/>
  <text x="792" y="1090" class="sans section-kicker">Phase 4B</text>
  <text x="792" y="1116" class="sans section-title">Data reads and EF rules</text>
  <text x="792" y="1154" class="sans section-note">These are the tables and EF Core behaviors that shape</text>
  <text x="792" y="1176" class="sans section-note">the patient profile payload behind the scenes.</text>

  <rect x="792" y="1216" width="556" height="96" rx="18" class="stage"/>
  <text x="812" y="1232" class="sans card-strong">AppUserRoles access check</text>
  <text x="812" y="1256" class="sans card-line">`TenantAccessService` queries `dbContext.AppUserRoles` to confirm</text>
  <text x="812" y="1278" class="sans card-line">that the current user has a valid tenant role.</text>
  <text x="812" y="1298" class="mono path">files: src/App.BLL/Services/TenantAccessService.cs</text>

  <rect x="792" y="1328" width="556" height="82" rx="18" class="subpanel"/>
  <text x="812" y="1344" class="sans card-strong">Patients table</text>
  <text x="812" y="1368" class="sans card-line">Provides the patient identity row used as the profile root object.</text>
  <text x="812" y="1390" class="mono path">files: src/App.DAL.EF/AppDbContext.cs</text>

  <rect x="792" y="1426" width="556" height="102" rx="18" class="subpanel"/>
  <text x="812" y="1442" class="sans card-strong">ToothRecords table</text>
  <text x="812" y="1466" class="sans card-line">Stores one row per tooth with latest condition, notes, and audit timestamps.</text>
  <text x="812" y="1488" class="sans card-line">Missing rows can be created by `EnsureFullToothChartAsync`.</text>
  <text x="812" y="1508" class="mono path">files: src/App.DAL.EF/AppDbContext.cs</text>

  <rect x="792" y="1544" width="556" height="102" rx="18" class="subpanel"/>
  <text x="812" y="1560" class="sans card-strong">Treatments + TreatmentTypes</text>
  <text x="812" y="1584" class="sans card-line">Treatment history comes from `Treatments`.</text>
  <text x="812" y="1606" class="sans card-line">The human-readable procedure name comes from `TreatmentType`.</text>
  <text x="812" y="1628" class="sans card-line">The service reads newest treatment first.</text>
  <text x="812" y="1648" class="mono path">files: src/App.DAL.EF/AppDbContext.cs</text>

  <rect x="792" y="1662" width="556" height="112" rx="18" class="stage-teal"/>
  <text x="812" y="1678" class="sans card-strong">Global query filters still apply</text>
  <text x="812" y="1702" class="sans card-line">`AppDbContext` limits tenant entities to the active `CompanyId`.</text>
  <text x="812" y="1724" class="sans card-line">Soft-deleted rows are excluded from the normal profile queries.</text>
  <text x="812" y="1746" class="sans card-line">So the profile cannot leak cross-tenant or deleted data.</text>
  <text x="812" y="1766" class="mono path">files: src/App.DAL.EF/AppDbContext.cs</text>
  <text x="812" y="1782" class="mono path">       src/App.DAL.EF/Tenant/ITenantProvider.cs</text>

  <rect x="792" y="1790" width="556" height="112" rx="18" class="stage-amber"/>
  <text x="812" y="1806" class="sans card-strong">Optional SaveChanges branch</text>
  <text x="812" y="1830" class="sans card-line">If `EnsureFullToothChartAsync` adds missing teeth, `SaveChangesAsync()`</text>
  <text x="812" y="1852" class="sans card-line">applies audit fields, soft delete rules, and audit logs.</text>
  <text x="812" y="1874" class="sans card-line">So the fallback chart seeding still follows platform rules.</text>
  <text x="812" y="1894" class="mono path">files: src/App.DAL.EF/AppDbContext.cs</text>

  <rect x="60" y="2000" width="620" height="360" rx="28" class="panel"/>
  <text x="92" y="2030" class="sans section-kicker">Phase 5</text>
  <text x="92" y="2056" class="sans section-title">Response mapping and DTO</text>
  <text x="92" y="2094" class="sans section-note">The controller converts the BLL result into the JSON shape</text>
  <text x="92" y="2116" class="sans section-note">that the browser consumes.</text>

  <rect x="92" y="2152" width="556" height="98" rx="18" class="stage-teal"/>
  <text x="112" y="2168" class="sans card-strong">PatientsController.ToProfileResponse(result)</text>
  <text x="112" y="2192" class="sans card-line">Maps `PatientProfileResult` to `PatientProfileResponse`,</text>
  <text x="112" y="2214" class="sans card-line">`PatientToothResponse`, and `PatientToothHistoryResponse`.</text>
  <text x="112" y="2234" class="mono path">files: src/WebApp/ApiControllers/Tenant/PatientsController.cs</text>

  <rect x="92" y="2266" width="556" height="82" rx="18" class="subpanel"/>
  <text x="112" y="2282" class="sans card-strong">DTO payload shape</text>
  <text x="112" y="2306" class="sans card-line">The response includes patient basics plus `teeth[]`, and each tooth includes `history[]`.</text>
  <text x="112" y="2328" class="mono path">files: src/App.DTO/v1/Patients/PatientProfileResponse.cs</text>
  <text x="112" y="2344" class="mono path">       src/App.DTO/v1/Patients/PatientToothResponse.cs</text>

  <rect x="760" y="2000" width="620" height="360" rx="28" class="panel"/>
  <text x="792" y="2030" class="sans section-kicker">Phase 6</text>
  <text x="792" y="2056" class="sans section-title">Frontend render and tooth selection</text>
  <text x="792" y="2094" class="sans section-note">After the JSON response comes back, the rest of the experience</text>
  <text x="792" y="2116" class="sans section-note">is local UI state and DOM rendering.</text>

  <rect x="792" y="2152" width="556" height="88" rx="18" class="stage-blue"/>
  <text x="812" y="2168" class="sans card-strong">renderPatientProfile(profile)</text>
  <text x="812" y="2192" class="sans card-line">Stores `state.patientProfile`, computes counts, fills summary facts,</text>
  <text x="812" y="2214" class="sans card-line">and writes profile form values.</text>
  <text x="812" y="2234" class="mono path">files: src/WebApp/wwwroot/js/app-patients.js</text>

  <rect x="792" y="2256" width="556" height="82" rx="18" class="stage-amber"/>
  <text x="812" y="2272" class="sans card-strong">resolveSelectedPatientTooth(...)</text>
  <text x="812" y="2296" class="sans card-line">Chooses preferred tooth -&gt; first with history -&gt; first issue -&gt; first tooth.</text>
  <text x="812" y="2318" class="mono path">files: src/WebApp/wwwroot/js/app-patients.js</text>

  <rect x="792" y="2354" width="556" height="104" rx="18" class="stage-teal"/>
  <text x="812" y="2370" class="sans card-strong">renderPatientToothChart(...) + renderSelectedPatientTooth(...)</text>
  <text x="812" y="2394" class="sans card-line">Builds the chart UI, hover text, and tooth history panel from</text>
  <text x="812" y="2416" class="sans card-line">the already loaded `profile.teeth[]` data.</text>
  <text x="812" y="2438" class="sans card-line">Clicking another tooth re-renders locally. No second API call is needed.</text>
  <text x="812" y="2458" class="mono path">files: src/WebApp/wwwroot/js/app-patients.js</text>
  <text x="812" y="2474" class="mono path">       src/WebApp/wwwroot/index.html</text>

  <rect x="60" y="2410" width="1320" height="72" rx="22" class="chip-rose"/>
  <text x="84" y="2426" class="sans card-strong">Failure branches</text>
  <text x="84" y="2450" class="sans card-line">401 in `apiRequest`, 403 for tenant or role issues, 404 for missing patient, and ProblemDetails from middleware on server-side exceptions.</text>
</svg>
